<?xml version="1.0" standalone="no"?>
<!DOCTYPE svg PUBLIC "-//W3C//DTD SVG 20010904//EN"
 "http://www.w3.org/TR/2001/REC-SVG-20010904/DTD/svg10.dtd">
<svg version="1.0" xmlns="http://www.w3.org/2000/svg"
 width="1024.000000pt" height="1024.000000pt" viewBox="0 0 1024.000000 1024.000000"
 preserveAspectRatio="xMidYMid meet">

<g transform="translate(0.000000,1024.000000) scale(0.100000,-0.100000)"
 fill="#80bfff" stroke="none">
<path d="M6615 8156 c-76 -20 -97 -31 -133 -67 -68 -70 -79 -213 -28 -369 39
-117 42 -153 18 -192 -11 -18 -37 -48 -56 -67 l-36 -35 63 -42 c76 -50 206
-178 252 -247 l34 -50 0 59 c-1 76 31 160 76 204 33 32 37 34 107 32 l73 -1
-101 49 c-63 31 -112 62 -132 84 -28 33 -52 89 -52 126 0 8 -11 37 -25 64 -39
78 -28 146 24 146 39 0 101 -74 101 -120 0 -50 18 -16 56 105 23 75 50 145 59
155 15 16 31 20 87 20 l68 0 0 36 c0 45 -48 97 -105 113 -54 15 -288 12 -350
-3z"/>
<path d="M3445 8030 c-3 -5 -2 -10 4 -10 5 0 13 5 16 10 3 6 2 10 -4 10 -5 0
-13 -4 -16 -10z"/>
<path d="M5192 7564 c-43 -15 -252 -125 -327 -172 -22 -14 -155 -100 -295
-192 -140 -92 -274 -178 -297 -191 -29 -16 -47 -36 -57 -60 -35 -86 -49 -266
-22 -288 17 -15 57 -1 94 34 15 14 43 30 62 36 87 29 152 102 166 187 9 60 40
85 162 132 129 50 491 174 584 200 l68 19 272 -90 c150 -49 279 -93 286 -98 7
-4 24 -50 37 -102 66 -261 56 -578 -26 -889 -25 -91 -106 -298 -127 -322 -19
-23 -194 -111 -337 -171 -201 -85 -530 -191 -747 -242 -42 -10 -75 -21 -73
-24 1 -3 -11 -6 -28 -7 -44 -1 -260 -45 -272 -56 -5 -5 5 -5 24 -2 28 6 33 4
30 -11 -2 -10 -13 -23 -24 -29 -34 -19 -51 -44 -69 -98 -3 -10 -12 -18 -20
-18 -8 0 -19 -7 -24 -16 -5 -9 -23 -17 -39 -18 -25 -1 -29 -4 -25 -25 4 -21 2
-23 -21 -19 -18 4 -24 1 -20 -9 3 -7 0 -13 -6 -13 -6 0 -11 -8 -12 -17 0 -15
-2 -15 -9 2 -7 18 -8 18 -15 -7 -5 -18 -14 -28 -26 -28 -12 0 -19 -7 -19 -20
0 -13 -7 -20 -20 -20 -13 0 -20 -7 -20 -19 0 -12 -9 -21 -25 -25 -26 -7 -32
-25 -15 -42 6 -6 2 -14 -13 -23 -21 -14 -21 -13 -7 5 14 19 14 19 -8 0 -12
-11 -22 -25 -22 -33 0 -18 -41 -33 -71 -26 -19 4 -21 3 -9 -6 12 -9 9 -11 -15
-11 -16 0 -37 -5 -45 -11 -22 -15 49 -3 220 37 687 162 1405 447 1860 737 86
55 125 83 240 173 44 35 -82 -96 -371 -385 -197 -198 -237 -243 -321 -366
-150 -221 -294 -487 -424 -783 l-49 -113 -120 -62 c-102 -53 -133 -75 -206
-147 -74 -72 -93 -99 -132 -180 -36 -75 -243 -575 -270 -652 -5 -15 -19 -18
-87 -18 -45 0 -79 3 -77 8 2 4 15 40 27 81 18 59 70 194 107 280 4 9 2 12 -5
7 -7 -4 -12 -15 -12 -24 0 -15 -2 -15 -11 -2 -9 13 -10 13 -8 0 3 -31 -3 -44
-10 -20 -5 14 -14 24 -22 22 -8 -2 -1 8 16 22 16 13 34 22 39 19 5 -4 6 -1 2
6 -8 13 -12 11 -73 -40 -17 -15 -29 -31 -25 -36 4 -4 3 -5 -2 -1 -12 10 -46
-10 -46 -27 0 -7 -5 -17 -12 -21 -7 -4 -8 -3 -4 4 13 21 -6 13 -48 -21 -52
-42 -271 -191 -354 -241 -35 -21 -62 -39 -60 -41 2 -1 76 -40 166 -85 116 -59
162 -87 162 -99 0 -10 9 -44 21 -77 21 -61 22 -90 3 -320 -5 -60 -2 -102 10
-155 18 -81 71 -196 99 -213 27 -17 51 4 53 50 6 95 18 146 61 254 84 211 225
487 330 645 203 305 348 466 833 929 168 160 557 569 691 726 l101 118 44 -19
c69 -31 175 -55 395 -89 177 -28 237 -39 358 -66 20 -4 12 -10 -44 -29 -101
-36 -221 -100 -390 -210 -82 -53 -218 -131 -301 -172 l-152 -75 -88 59 c-128
86 -129 86 -163 69 -66 -35 -121 -133 -145 -259 -13 -68 -21 -85 -69 -144 -92
-115 -147 -252 -147 -368 0 -83 14 -91 59 -34 205 256 577 462 1101 607 80 22
262 70 405 107 465 119 553 150 628 223 40 39 77 106 77 138 -1 27 -117 112
-295 214 -250 143 -619 290 -930 370 -105 27 -115 33 -114 69 1 25 2 25 8 -4
6 -28 7 -28 13 -8 3 13 2 26 -3 29 -5 3 -7 10 -4 15 4 5 -1 12 -10 15 -9 4
-14 13 -11 21 5 11 1 13 -16 7 -21 -6 -21 -6 -5 10 18 18 23 31 9 22 -4 -2
-14 -1 -22 5 -10 6 -11 9 -2 9 8 0 12 16 12 45 0 25 -4 45 -9 45 -5 0 -11 10
-13 23 -2 12 -8 22 -15 22 -23 0 -26 15 -2 16 22 1 21 2 -6 10 -65 19 -124 26
-129 15 -2 -6 -5 -3 -5 7 -1 10 3 26 9 36 8 17 19 16 185 -16 169 -33 178 -33
190 -16 28 36 240 472 221 452 -2 -2 -24 -31 -49 -64 -49 -67 -140 -165 -152
-165 -5 0 0 9 9 19 11 12 13 20 6 23 -6 2 -12 20 -13 40 -2 23 -10 43 -22 53
-19 14 -18 14 9 5 25 -9 27 -9 16 5 -7 8 -10 24 -7 35 3 13 0 20 -10 20 -10 0
-13 -6 -9 -16 3 -9 2 -12 -5 -9 -5 4 -7 16 -4 27 4 12 0 27 -11 39 -9 10 -14
22 -10 26 4 4 11 1 16 -7 5 -8 12 -11 16 -7 4 3 -4 15 -17 26 -15 13 -19 20
-10 21 11 0 11 3 1 15 -7 8 -16 13 -19 10 -4 -2 -8 2 -8 10 0 8 3 13 6 11 3
-2 7 18 7 45 1 27 -3 46 -7 43 -5 -3 -10 0 -10 5 -1 6 -3 16 -4 21 -1 6 -3 13
-4 18 -1 4 -5 1 -10 -7 -5 -7 -20 -15 -35 -16 -21 -3 -26 1 -26 18 0 16 3 18
9 9 7 -11 9 -11 14 2 4 9 3 16 -1 16 -5 0 -9 21 -11 46 -1 25 2 44 6 41 24
-15 -18 411 -47 489 -7 17 -7 23 0 19 18 -11 10 8 -41 101 -64 116 -151 225
-266 335 -140 133 -292 227 -492 304 -64 25 -79 34 -61 37 16 2 25 10 25 20 0
24 15 36 50 41 17 2 -40 4 -125 5 -114 1 -166 -3 -198 -14z m1058 -2305 c0
-11 -4 -17 -10 -14 -5 3 -10 13 -10 21 0 8 5 14 10 14 6 0 10 -9 10 -21z
m-2260 -463 c0 -3 -4 -8 -10 -11 -5 -3 -10 -1 -10 4 0 6 5 11 10 11 6 0 10 -2
10 -4z"/>
<path d="M7602 7408 c-6 -7 -20 -67 -32 -133 -11 -65 -23 -121 -25 -123 -2 -2
-9 9 -17 25 -9 19 -22 29 -41 31 -26 3 -27 2 -27 -47 0 -62 17 -141 41 -195
26 -58 24 -79 -20 -171 -44 -90 -219 -357 -275 -420 -20 -22 -36 -44 -36 -49
0 -5 -3 -6 -6 -3 -4 4 -2 12 3 19 7 9 5 21 -3 38 -8 14 -14 20 -14 14 0 -7 -9
-14 -19 -17 -14 -3 -18 -1 -14 9 4 10 0 12 -11 8 -11 -4 -16 0 -16 13 0 11 -9
37 -19 59 -10 21 -27 62 -36 89 -9 28 -29 77 -44 110 l-28 60 -7 -60 c-12 -96
-53 -295 -76 -363 l-21 -63 93 -101 c112 -122 177 -175 224 -184 85 -16 179
61 266 217 58 106 99 205 183 443 74 211 78 221 111 256 109 118 87 372 -46
509 -41 42 -69 51 -88 29z"/>
<path d="M4628 6523 c7 -3 16 -2 19 1 4 3 -2 6 -13 5 -11 0 -14 -3 -6 -6z"/>
<path d="M6465 5870 c3 -5 12 -7 20 -3 21 7 19 13 -6 13 -11 0 -18 -4 -14 -10z"/>
<path d="M4278 5263 c7 -3 16 -2 19 1 4 3 -2 6 -13 5 -11 0 -14 -3 -6 -6z"/>
<path d="M4208 5253 c7 -3 16 -2 19 1 4 3 -2 6 -13 5 -11 0 -14 -3 -6 -6z"/>
<path d="M4310 5240 c0 -5 9 -10 21 -10 11 0 17 5 14 10 -3 6 -13 10 -21 10
-8 0 -14 -4 -14 -10z"/>
<path d="M5398 4996 c-14 -14 -29 -22 -34 -18 -4 4 -4 1 0 -6 6 -11 15 -7 37
14 27 26 33 34 26 34 -1 0 -14 -11 -29 -24z"/>
<path d="M5270 4879 c0 -5 -4 -7 -10 -4 -5 3 -10 1 -10 -4 0 -16 16 -13 30 4
9 10 9 15 1 15 -6 0 -11 -5 -11 -11z"/>
<path d="M5199 4813 l-34 -38 38 34 c34 33 42 41 34 41 -2 0 -19 -17 -38 -37z"/>
<path d="M5113 4743 c0 -9 4 -10 14 -2 7 6 13 12 13 14 0 1 -6 2 -13 2 -8 0
-14 -6 -14 -14z"/>
<path d="M3728 4713 c7 -3 16 -2 19 1 4 3 -2 6 -13 5 -11 0 -14 -3 -6 -6z"/>
<path d="M3668 4703 c6 -2 18 -2 25 0 6 3 1 5 -13 5 -14 0 -19 -2 -12 -5z"/>
<path d="M3613 4693 c9 -2 23 -2 30 0 6 3 -1 5 -18 5 -16 0 -22 -2 -12 -5z"/>
<path d="M3488 4673 c6 -2 18 -2 25 0 6 3 1 5 -13 5 -14 0 -19 -2 -12 -5z"/>
<path d="M3163 4623 c9 -2 23 -2 30 0 6 3 -1 5 -18 5 -16 0 -22 -2 -12 -5z"/>
<path d="M7130 3927 c-218 -319 -611 -616 -1010 -760 -231 -84 -359 -117 -570
-147 -232 -34 -685 -23 -846 20 -32 8 -33 7 -112 -104 -44 -61 -112 -160 -151
-221 l-71 -110 68 -12 c190 -36 561 -44 805 -18 165 18 420 78 582 137 538
198 1031 621 1263 1083 53 106 84 176 80 181 -2 1 -19 -21 -38 -49z"/>
<path d="M4384 3828 l-19 -23 23 19 c12 11 22 21 22 23 0 8 -8 2 -26 -19z"/>
<path d="M4076 3563 c-6 -14 -5 -15 5 -6 7 7 10 15 7 18 -3 3 -9 -2 -12 -12z"/>
<path d="M3949 3463 c-13 -16 -12 -17 4 -4 9 7 17 15 17 17 0 8 -8 3 -21 -13z"/>
<path d="M4195 3419 c-4 -6 -5 -12 -2 -15 2 -3 7 2 10 11 7 17 1 20 -8 4z"/>
<path d="M3848 3403 c-10 -2 -18 -9 -18 -14 0 -6 8 -5 20 1 11 6 20 13 20 15
0 3 -1 4 -2 4 -2 -1 -11 -3 -20 -6z"/>
</g>
</svg>
